<?xml version="1.0" encoding="utf-8"?>
<!-- Generator: Adobe Illustrator 27.9.0, SVG Export Plug-In . SVG Version: 6.00 Build 0)  -->
<svg version="1.1" id="Calque_1" xmlns="http://www.w3.org/2000/svg" xmlns:xlink="http://www.w3.org/1999/xlink" x="0px" y="0px"
	 viewBox="0 0 510 499" style="enable-background:new 0 0 510 499;" xml:space="preserve">
<style type="text/css">
	.st0{fill:#FFFFFF;}
	.st1{fill:none;}
	.st2{font-family:'FuturaPT-Light';}
	.st3{font-size:33.7214px;}
	.st4{font-size:91.374px;}
	.st5{fill:#E5231E;}
</style>
<g>
	<g>
		<g>
			<path class="st0" d="M483.3,253.1c-0.1,49.1-14.6,97.6-42.2,138.3c-26.7,39.4-65.2,71.3-109.7,88.5c-2.1,0.8-3.7,1.4-5.1,1.9
				c1.2-0.4,1.5-0.4,0,0c0.6-0.1-2,0.5-2.4,0.6c-5.7,1.5-11.5,2.7-17.3,3.7c-12.2,2-24.6,3.1-37,3.2c-24.8,0.2-49.7-3.5-73.3-11.1
				c-45.2-14.5-85.4-42.7-114.8-79.9C51.2,359.9,33,312.7,29.4,264c-3.6-49.3,7.6-99.3,32.4-142.2c23.9-41.2,59.8-75.1,102.7-96
				c5.3-2.6,10.6-4.9,16.1-7c2.1-0.8,3.7-1.4,5.1-1.9c-1.4,0.5-1.4,0.4-0.1,0c0.2-0.1,1.9-0.5,2.6-0.7c11.6-3,23.6-4.9,35.6-6
				c24.9-2.2,50.2-0.4,74.6,5.4c46.5,11,89,36.4,121.1,71.8c32.5,35.7,53.9,80.9,61,128.6C482.4,228.3,483.2,240.7,483.3,253.1
				c0,0.2,11.2-2.9,12.1-3.2c1.2-0.4,11.7-2.9,11.7-4.4c-0.1-51.4-16-101.9-46-143.7C432.2,61.6,391,30.5,344,14.5
				C294.1-2.6,241.3-1.1,191.1,14c-26.3,7.9-51.7,18-74.8,33C95.8,60.3,77.4,76.6,61.8,95.4c-32.4,38.9-52.1,87.5-56.1,138
				c-4.1,51.6,8.1,103.9,35,148.1c25.8,42.3,64.5,76.4,110,96.1c46.9,20.3,99.8,24.5,149.4,12.8c51.9-12.3,100.4-34.8,137.9-73.3
				c35.1-36.2,58.4-83.1,66.2-133c2-12.7,2.9-25.6,3-38.4c0-0.2-11.2,2.9-12.1,3.2C493.8,249.2,483.3,251.7,483.3,253.1z"/>
		</g>
	</g>
	<g>
		<rect x="111.9" y="366.7" class="st1" width="300" height="44.5"/>
		<text transform="matrix(0.9814 0 0 1 127.5742 391.2885)" class="st0 st2 st3">Maintenant ou jamais</text>
		<g>
			<g>
				<g>
					<path class="st0" d="M103.2,208.1c-0.8,1.8,0.1-0.1,0.6-1.2c0.6-1.1,1.8-3.4,2.9-5.5c4.4-7.9,9.4-15.5,14.7-22.9
						c9.5-13.2,20.2-25.7,31.5-37.4c15.9-16.5,33.5-31.3,49.5-47.8c15.2-15.6,29.6-32,43.6-48.7c1.4-3.1,2.8-6.3,4.2-9.4
						c-27.7,40.9-51.2,85.5-68.9,131.6c-19.1,49.6-34.8,100.5-51.7,150.9c-8.6,25.6-17.4,51.2-27.2,76.4c-0.5,1.2-0.1,1.3,0.7,0.4
						c15.3-17.8,25.5-40.2,36.5-60.8c11.1-21,19.6-43.2,31.2-64c11.8-21.2,21.7-43.4,33.8-64.4c11.1-19.3,24.6-37,39.3-53.6
						c17.9-20.1,37.7-38.5,58.2-55.9c0.1-0.7,0.2-1.4,0.3-2c-13,30.8-36.3,55.2-56,81.7c-10.2,13.7-19.1,28.2-29.9,41.3
						c-11.1,13.5-23.1,26.2-34.8,39.1c-12.7,14-25,28.4-35.4,44.2c-1.5,2.3-3,4.7-4.1,7.2c-0.1,0.2-1.3,3.3-0.7,2.7
						c7.8-7.3,20.7-8.5,30.9-8.5c10.2,0,22.8,1.1,31.2,7.7c5.1,4,8.9,11,9.9,17.3c0.5,3.5-0.5,6.7-0.3,10.1c0.2,3.4,1.4,6.5,3.4,9.3
						c9.1,12.7,26.4,9.3,38.6,3.3c6.6-3.2,12.6-9.5,17.7-14.9c2.5-2.7,4.7-5.5,6.6-8.6c0.5-0.8,4.8-7.9,4.2-8.2
						c-0.9-0.5-2.9,3.2-3.4,4.1c0.6-1,2.4-3.2,0.9-1.5c-1.4,1.6-2.9,3.2-4.5,4.8c-5.5,5.3-11.2,10.7-18.4,13.3
						c-12.8,4.6-29.7,6.5-36.2-8.7c-2.5-5.9,0.1-12.2-1.6-18.3c-1.5-5.7-5.1-11.8-10-15.3c-8.4-6-20.5-7.2-30.5-7.2
						c-10.4,0-23.5,1.4-31.5,8.8c-1.6,3.3-3.2,6.6-4.8,10c20.3-30.8,48.5-55.5,71.4-84.3c11.1-14,20.4-29.4,31.4-43.6
						c10.6-13.8,21.7-27.1,31.8-41.2c12-16.7,22.5-34.4,30.5-53.3c-0.1,0.1,1.2-2.8,0.3-2c-34.9,29.5-67.4,62.1-92.8,100.4
						c-13,19.6-23.7,40.5-34.3,61.4c-10.9,21.6-23.1,42.4-33,64.5c-4.7,10.5-9.3,21.1-14.9,31.1c-5.8,10.3-10.8,21.2-17,31.3
						c-1.6,2.6-3.3,5.1-5.2,7.5c-2.5,3.1-1.7,2.4-0.6-0.5c2.1-5.5,4.2-11.1,6.2-16.6c3.9-10.6,7.6-21.2,11.3-31.9
						c16.4-47.6,31.4-95.6,48.2-143c18-50.9,40.1-100,70.5-144.9c1.6-2.4,3.4-5.2,4.4-7.9c0.3-0.7,1.3-3.3-0.2-1.5
						c-22.2,26.4-45.5,51.4-70.8,74.8c-21.9,20.3-42.3,41.9-59.2,66.6c-9.2,13.4-17.8,27.5-24.8,42.2c-1.1,2.4-0.6,2.3,0.9,0.5
						C100.1,214.6,101.7,211.2,103.2,208.1L103.2,208.1z"/>
				</g>
			</g>
			<rect x="170" y="223.9" class="st1" width="238.2" height="69.5"/>
			<text transform="matrix(0.9814 0 0 1 199.5439 290.5287)" class="st0 st2 st4">a</text>
			<text transform="matrix(0.9814 0 0 1 245.8169 290.5287)" class="st5 st2 st4">ii</text>
			<text transform="matrix(0.9814 0 0 1 278.8115 290.5287)" class="st0 st2 st4">ros</text>
		</g>
	</g>
</g>
</svg>
