<?xml version="1.0" encoding="utf-8"?>
<!-- Generator: Adobe Illustrator 27.7.0, SVG Export Plug-In . SVG Version: 6.00 Build 0)  -->
<svg version="1.1" id="Calque_1" xmlns="http://www.w3.org/2000/svg" xmlns:xlink="http://www.w3.org/1999/xlink" x="0px" y="0px"
	 viewBox="0 0 595.28 841.89" style="enable-background:new 0 0 595.28 841.89;" xml:space="preserve">
<style type="text/css">
	.st0{fill:none;}
	.st1{font-family:'FuturaPT-Light';}
	.st2{font-size:33.7214px;}
	.st3{font-size:91.374px;}
	.st4{fill:#E5231E;}
</style>
<g>
	<g>
		<path d="M525.26,424.14c-0.14,49.13-14.63,97.59-42.23,138.32c-26.66,39.35-65.21,71.28-109.68,88.46
			c-2.1,0.81-3.74,1.39-5.13,1.86c1.23-0.42,1.49-0.42-0.02-0.01c0.56-0.15-1.97,0.53-2.42,0.65c-5.69,1.49-11.48,2.68-17.28,3.66
			c-12.21,2.04-24.58,3.12-36.97,3.23c-24.83,0.22-49.66-3.54-73.3-11.1c-45.2-14.45-85.4-42.73-114.78-79.93
			c-30.29-38.35-48.49-85.55-52.05-134.27c-3.61-49.34,7.6-99.32,32.43-142.15c23.9-41.22,59.85-75.09,102.72-95.96
			c5.26-2.56,10.63-4.93,16.09-7.04c2.14-0.83,3.71-1.38,5.13-1.86c-1.35,0.46-1.42,0.41-0.13,0.05c0.2-0.06,1.89-0.52,2.57-0.7
			c11.63-3.05,23.59-4.93,35.56-5.98c24.95-2.19,50.22-0.39,74.59,5.37c46.51,11,89.02,36.43,121.15,71.75
			c32.48,35.71,53.86,80.86,61,128.59C524.35,399.34,525.23,411.73,525.26,424.14c0,0.17,11.21-2.89,12.11-3.17
			c1.23-0.39,11.74-2.93,11.73-4.35c-0.14-51.36-16.01-101.94-46-143.72c-28.92-40.29-70.11-71.35-117.09-87.4
			c-49.96-17.07-102.71-15.56-152.9-0.45c-26.27,7.91-51.72,18.02-74.82,32.98c-20.47,13.26-38.93,29.63-54.56,48.36
			c-32.42,38.87-52.11,87.53-56.08,137.97c-4.06,51.57,8.1,103.89,35.02,148.1c25.77,42.32,64.46,76.42,109.98,96.11
			c46.88,20.28,99.76,24.5,149.41,12.76c51.86-12.26,100.41-34.75,137.88-73.33c35.15-36.19,58.43-83.12,66.18-132.96
			c1.98-12.72,2.92-25.57,2.96-38.44c0-0.16-11.2,2.89-12.11,3.17C535.76,420.17,525.27,422.7,525.26,424.14z"/>
	</g>
</g>
<g>
	<rect x="153.89" y="537.71" class="st0" width="300.04" height="44.47"/>
	<text transform="matrix(0.9814 0 0 1 169.5742 562.2886)" class="st1 st2">Maintenant ou jamais</text>
	<g>
		<g>
			<g>
				<path d="M145.16,379.1c-0.84,1.79,0.08-0.15,0.6-1.16c0.58-1.15,1.79-3.44,2.94-5.5c4.42-7.91,9.37-15.53,14.65-22.89
					c9.49-13.21,20.2-25.67,31.5-37.36c15.94-16.5,33.49-31.35,49.52-47.79c15.21-15.6,29.57-32,43.57-48.68
					c1.41-3.13,2.83-6.27,4.24-9.4c-27.71,40.89-51.16,85.47-68.89,131.58c-19.09,49.62-34.82,100.52-51.72,150.9
					c-8.59,25.61-17.38,51.17-27.17,76.36c-0.46,1.17-0.11,1.27,0.66,0.38c15.31-17.84,25.51-40.16,36.46-60.8
					c11.14-21,19.63-43.2,31.17-64c11.76-21.19,21.73-43.35,33.81-64.36c11.07-19.26,24.61-37.03,39.34-53.62
					c17.88-20.14,37.67-38.49,58.23-55.86c0.11-0.68,0.22-1.36,0.33-2.04c-13.03,30.81-36.27,55.21-56,81.74
					c-10.18,13.68-19.05,28.17-29.93,41.33c-11.12,13.47-23.12,26.16-34.83,39.11c-12.69,14.04-24.97,28.44-35.42,44.25
					c-1.52,2.3-2.96,4.74-4.11,7.24c-0.11,0.24-1.32,3.33-0.66,2.72c7.84-7.27,20.74-8.46,30.92-8.51
					c10.24-0.05,22.84,1.12,31.22,7.68c5.07,3.96,8.93,10.96,9.86,17.3c0.51,3.45-0.48,6.68-0.29,10.1c0.19,3.37,1.4,6.54,3.35,9.28
					c9.07,12.73,26.41,9.28,38.59,3.32c6.63-3.24,12.64-9.53,17.67-14.88c2.5-2.67,4.74-5.52,6.64-8.65
					c0.45-0.75,4.75-7.9,4.16-8.25c-0.85-0.51-2.88,3.18-3.42,4.08c0.63-1.04,2.36-3.19,0.89-1.51c-1.44,1.65-2.91,3.24-4.48,4.76
					c-5.45,5.29-11.16,10.69-18.41,13.28c-12.82,4.57-29.7,6.51-36.16-8.72c-2.5-5.89,0.07-12.16-1.56-18.28
					c-1.52-5.72-5.14-11.83-10.01-15.31c-8.45-6.05-20.47-7.22-30.54-7.17c-10.38,0.05-23.53,1.36-31.53,8.78
					c-1.59,3.32-3.18,6.64-4.78,9.96c20.33-30.78,48.51-55.46,71.37-84.25c11.14-14.03,20.44-29.36,31.35-43.57
					c10.56-13.75,21.69-27.07,31.8-41.16c11.95-16.66,22.55-34.41,30.54-53.31c-0.06,0.14,1.21-2.78,0.33-2.04
					c-34.94,29.53-67.39,62.14-92.75,100.4c-12.99,19.59-23.71,40.47-34.34,61.4c-10.95,21.57-23.06,42.43-32.98,64.51
					c-4.71,10.49-9.26,21.1-14.88,31.14c-5.79,10.34-10.81,21.19-17,31.29c-1.58,2.58-3.3,5.06-5.17,7.45
					c-2.47,3.15-1.71,2.44-0.6-0.46c2.12-5.53,4.19-11.07,6.23-16.63c3.88-10.6,7.62-21.24,11.29-31.91
					c16.37-47.56,31.44-95.55,48.23-142.97c18.04-50.93,40.12-100.01,70.53-144.88c1.64-2.42,3.38-5.18,4.44-7.93
					c0.27-0.69,1.3-3.26-0.2-1.47c-22.17,26.42-45.52,51.38-70.79,74.83c-21.87,20.28-42.3,41.93-59.23,66.59
					c-9.2,13.41-17.84,27.48-24.79,42.21c-1.11,2.36-0.57,2.34,0.92,0.53C142.05,385.63,143.7,382.2,145.16,379.1L145.16,379.1z"/>
			</g>
		</g>
		<rect x="212.02" y="394.92" class="st0" width="238.22" height="69.48"/>
		<text transform="matrix(0.9814 0 0 1 241.5439 461.5288)"><tspan x="0" y="0" class="st1 st3">a</tspan><tspan x="47.15" y="0" class="st4 st1 st3">ii</tspan><tspan x="80.77" y="0" class="st1 st3">ros</tspan></text>
	</g>
</g>
</svg>
